$MeshFormat
2.2 0 8
$EndMeshFormat
$PhysicalNames
3
2 11 "sym"
2 13 "wall"
3 10 "interior"
$EndPhysicalNames
$Nodes
242
1 0 0 0
2 0 1 0
3 1 1 0
4 1 0 0
5 0 0 1
6 1 0 1
7 1 1 1
8 0 1 1
9 0.09999999999981413 0 0
10 0.1999999999995569 0 0
11 0.299999999999265 0 0
12 0.3999999999989731 0 0
13 0.4999999999986921 0 0
14 0.599999999998945 0 0
15 0.6999999999992088 0 0
16 0.7999999999994725 0 0
17 0.8999999999997362 0 0
18 1 0.09999999999981413 0
19 1 0.1999999999995569 0
20 1 0.299999999999265 0
21 1 0.3999999999989731 0
22 1 0.4999999999986921 0
23 1 0.599999999998945 0
24 1 0.6999999999992088 0
25 1 0.7999999999994725 0
26 1 0.8999999999997362 0
27 0.8999999999995836 1 0
28 0.8 1 0
29 0.7000000000006938 1 0
30 0.6000000000013874 1 0
31 0.5000000000020595 1 0
32 0.400000000001665 1 0
33 0.3000000000012487 1 0
34 0.2000000000008325 1 0
35 0.1000000000004162 1 0
36 0 0.8999999999995836 0
37 0 0.8 0
38 0 0.7000000000006938 0
39 0 0.6000000000013874 0
40 0 0.5000000000020595 0
41 0 0.400000000001665 0
42 0 0.3000000000012487 0
43 0 0.2000000000008325 0
44 0 0.1000000000004162 0
45 0.09999999999981413 0 1
46 0.1999999999995569 0 1
47 0.299999999999265 0 1
48 0.3999999999989731 0 1
49 0.4999999999986921 0 1
50 0.599999999998945 0 1
51 0.6999999999992088 0 1
52 0.7999999999994725 0 1
53 0.8999999999997362 0 1
54 1 0.09999999999981413 1
55 1 0.1999999999995569 1
56 1 0.299999999999265 1
57 1 0.3999999999989731 1
58 1 0.4999999999986921 1
59 1 0.599999999998945 1
60 1 0.6999999999992088 1
61 1 0.7999999999994725 1
62 1 0.8999999999997362 1
63 0.8999999999995836 1 1
64 0.8 1 1
65 0.7000000000006938 1 1
66 0.6000000000013874 1 1
67 0.5000000000020595 1 1
68 0.400000000001665 1 1
69 0.3000000000012487 1 1
70 0.2000000000008325 1 1
71 0.1000000000004162 1 1
72 0 0.8999999999995836 1
73 0 0.8 1
74 0 0.7000000000006938 1
75 0 0.6000000000013874 1
76 0 0.5000000000020595 1
77 0 0.400000000001665 1
78 0 0.3000000000012487 1
79 0 0.2000000000008325 1
80 0 0.1000000000004162 1
81 0.09999999999984353 0.1000000000003368 0
82 0.09999999999989538 0.2000000000006585 0
83 0.09999999999995338 0.300000000000948 0
84 0.1000000000000123 0.4000000000011731 0
85 0.1000000000000709 0.5000000000012541 0
86 0.1000000000001294 0.6000000000009645 0
87 0.1000000000001899 0.7000000000005631 0
88 0.1000000000002562 0.8000000000001771 0
89 0.1000000000003318 0.8999999999999523 0
90 0.1999999999996645 0.1000000000002601 0
91 0.1999999999997827 0.2000000000004967 0
92 0.1999999999999003 0.3000000000006882 0
93 0.2000000000000144 0.400000000000806 0
94 0.2000000000001256 0.5000000000008091 0
95 0.200000000000237 0.6000000000006529 0
96 0.2000000000003552 0.7000000000004224 0
97 0.2000000000004897 0.8000000000001992 0
98 0.2000000000006492 0.9000000000000515 0
99 0.2999999999994743 0.1000000000001888 0
100 0.2999999999996666 0.2000000000003523 0
101 0.2999999999998404 0.3000000000004722 0
102 0.3000000000000007 0.4000000000005304 0
103 0.3000000000001536 0.5000000000005125 0
104 0.3000000000003079 0.600000000000417 0
105 0.300000000000477 0.7000000000002826 0
106 0.3000000000006803 0.8000000000001534 0
107 0.3000000000009368 0.9000000000000586 0
108 0.3999999999993002 0.1000000000001226 0
109 0.3999999999995636 0.200000000000223 0
110 0.3999999999997811 0.300000000000288 0
111 0.3999999999999715 0.4000000000003089 0
112 0.40000000000015 0.5000000000002846 0
113 0.4000000000003315 0.6000000000002239 0
114 0.4000000000005378 0.7000000000001489 0
115 0.4000000000008005 0.8000000000000815 0
116 0.4000000000011638 0.9000000000000331 0
117 0.4999999999991897 0.1000000000000605 0
118 0.4999999999995033 0.2000000000001041 0
119 0.4999999999997384 0.3000000000001233 0
120 0.4999999999999364 0.4000000000001167 0
121 0.5000000000001193 0.5000000000000895 0
122 0.5000000000003064 0.600000000000053 0
123 0.5000000000005224 0.7000000000000203 0
124 0.5000000000008087 0.8000000000000007 0
125 0.5000000000012496 0.899999999999996 0
126 0.599999999999267 0.1000000000000012 0
127 0.5999999999995236 0.1999999999999914 0
128 0.5999999999997312 0.2999999999999681 0
129 0.5999999999999097 0.399999999999936 0
130 0.6000000000000753 0.4999999999999055 0
131 0.6000000000002426 0.5999999999998887 0
132 0.600000000000429 0.6999999999998919 0
133 0.6000000000006582 0.7999999999999153 0
134 0.6000000000009656 0.8999999999999542 0
135 0.6999999999994166 0.09999999999994398 0
136 0.6999999999996014 0.1999999999998808 0
137 0.6999999999997611 0.299999999999813 0
138 0.6999999999999028 0.3999999999997514 0
139 0.7000000000000345 0.4999999999997137 0
140 0.7000000000001633 0.5999999999997161 0
141 0.7000000000002949 0.6999999999997556 0
142 0.7000000000004313 0.7999999999998231 0
143 0.7000000000005681 0.8999999999999078 0
144 0.7999999999995986 0.09999999999988905 0
145 0.7999999999997167 0.1999999999997696 0
146 0.7999999999998233 0.2999999999996483 0
147 0.7999999999999197 0.3999999999995443 0
148 0.8000000000000085 0.4999999999994882 0
149 0.800000000000091 0.5999999999995161 0
150 0.800000000000163 0.6999999999996009 0
151 0.8000000000002077 0.7999999999997197 0
152 0.8000000000001826 0.8999999999998564 0
153 0.8999999999997962 0.09999999999984051 0
154 0.899999999999854 0.1999999999996583 0
155 0.8999999999999068 0.2999999999994657 0
156 0.8999999999999554 0.3999999999992914 0
157 0.8999999999999996 0.4999999999991838 0
158 0.9000000000000379 0.5999999999992653 0
159 0.9000000000000641 0.699999999999419 0
160 0.9000000000000568 0.7999999999996024 0
161 0.8999999999999558 0.8999999999997986 0
162 0.09999999999984353 0.1000000000003368 1
163 0.09999999999989538 0.2000000000006585 1
164 0.09999999999995338 0.300000000000948 1
165 0.1000000000000123 0.4000000000011731 1
166 0.1000000000000709 0.5000000000012541 1
167 0.1000000000001294 0.6000000000009645 1
168 0.1000000000001899 0.7000000000005631 1
169 0.1000000000002562 0.8000000000001771 1
170 0.1000000000003318 0.8999999999999523 1
171 0.1999999999996645 0.1000000000002601 1
172 0.1999999999997827 0.2000000000004967 1
173 0.1999999999999003 0.3000000000006882 1
174 0.2000000000000144 0.400000000000806 1
175 0.2000000000001256 0.5000000000008091 1
176 0.200000000000237 0.6000000000006529 1
177 0.2000000000003552 0.7000000000004224 1
178 0.2000000000004897 0.8000000000001992 1
179 0.2000000000006492 0.9000000000000515 1
180 0.2999999999994743 0.1000000000001888 1
181 0.2999999999996666 0.2000000000003523 1
182 0.2999999999998404 0.3000000000004722 1
183 0.3000000000000007 0.4000000000005304 1
184 0.3000000000001536 0.5000000000005125 1
185 0.3000000000003079 0.600000000000417 1
186 0.300000000000477 0.7000000000002826 1
187 0.3000000000006803 0.8000000000001534 1
188 0.3000000000009368 0.9000000000000586 1
189 0.3999999999993002 0.1000000000001226 1
190 0.3999999999995636 0.200000000000223 1
191 0.3999999999997811 0.300000000000288 1
192 0.3999999999999715 0.4000000000003089 1
193 0.40000000000015 0.5000000000002846 1
194 0.4000000000003315 0.6000000000002239 1
195 0.4000000000005378 0.7000000000001489 1
196 0.4000000000008005 0.8000000000000815 1
197 0.4000000000011638 0.9000000000000331 1
198 0.4999999999991897 0.1000000000000605 1
199 0.4999999999995033 0.2000000000001041 1
200 0.4999999999997384 0.3000000000001233 1
201 0.4999999999999364 0.4000000000001167 1
202 0.5000000000001193 0.5000000000000895 1
203 0.5000000000003064 0.600000000000053 1
204 0.5000000000005224 0.7000000000000203 1
205 0.5000000000008087 0.8000000000000007 1
206 0.5000000000012496 0.899999999999996 1
207 0.599999999999267 0.1000000000000012 1
208 0.5999999999995236 0.1999999999999914 1
209 0.5999999999997312 0.2999999999999681 1
210 0.5999999999999097 0.399999999999936 1
211 0.6000000000000753 0.4999999999999055 1
212 0.6000000000002426 0.5999999999998887 1
213 0.600000000000429 0.6999999999998919 1
214 0.6000000000006582 0.7999999999999153 1
215 0.6000000000009656 0.8999999999999542 1
216 0.6999999999994166 0.09999999999994398 1
217 0.6999999999996014 0.1999999999998808 1
218 0.6999999999997611 0.299999999999813 1
219 0.6999999999999028 0.3999999999997514 1
220 0.7000000000000345 0.4999999999997137 1
221 0.7000000000001633 0.5999999999997161 1
222 0.7000000000002949 0.6999999999997556 1
223 0.7000000000004313 0.7999999999998231 1
224 0.7000000000005681 0.8999999999999078 1
225 0.7999999999995986 0.09999999999988905 1
226 0.7999999999997167 0.1999999999997696 1
227 0.7999999999998233 0.2999999999996483 1
228 0.7999999999999197 0.3999999999995443 1
229 0.8000000000000085 0.4999999999994882 1
230 0.800000000000091 0.5999999999995161 1
231 0.800000000000163 0.6999999999996009 1
232 0.8000000000002077 0.7999999999997197 1
233 0.8000000000001826 0.8999999999998564 1
234 0.8999999999997962 0.09999999999984051 1
235 0.899999999999854 0.1999999999996583 1
236 0.8999999999999068 0.2999999999994657 1
237 0.8999999999999554 0.3999999999992914 1
238 0.8999999999999996 0.4999999999991838 1
239 0.9000000000000379 0.5999999999992653 1
240 0.9000000000000641 0.699999999999419 1
241 0.9000000000000568 0.7999999999996024 1
242 0.8999999999999558 0.8999999999997986 1
$EndNodes
$Elements
340
1 3 2 11 1 1 9 81 44
2 3 2 11 1 44 81 82 43
3 3 2 11 1 43 82 83 42
4 3 2 11 1 42 83 84 41
5 3 2 11 1 41 84 85 40
6 3 2 11 1 40 85 86 39
7 3 2 11 1 39 86 87 38
8 3 2 11 1 38 87 88 37
9 3 2 11 1 37 88 89 36
10 3 2 11 1 36 89 35 2
11 3 2 11 1 9 10 90 81
12 3 2 11 1 81 90 91 82
13 3 2 11 1 82 91 92 83
14 3 2 11 1 83 92 93 84
15 3 2 11 1 84 93 94 85
16 3 2 11 1 85 94 95 86
17 3 2 11 1 86 95 96 87
18 3 2 11 1 87 96 97 88
19 3 2 11 1 88 97 98 89
20 3 2 11 1 89 98 34 35
21 3 2 11 1 10 11 99 90
22 3 2 11 1 90 99 100 91
23 3 2 11 1 91 100 101 92
24 3 2 11 1 92 101 102 93
25 3 2 11 1 93 102 103 94
26 3 2 11 1 94 103 104 95
27 3 2 11 1 95 104 105 96
28 3 2 11 1 96 105 106 97
29 3 2 11 1 97 106 107 98
30 3 2 11 1 98 107 33 34
31 3 2 11 1 11 12 108 99
32 3 2 11 1 99 108 109 100
33 3 2 11 1 100 109 110 101
34 3 2 11 1 101 110 111 102
35 3 2 11 1 102 111 112 103
36 3 2 11 1 103 112 113 104
37 3 2 11 1 104 113 114 105
38 3 2 11 1 105 114 115 106
39 3 2 11 1 106 115 116 107
40 3 2 11 1 107 116 32 33
41 3 2 11 1 12 13 117 108
42 3 2 11 1 108 117 118 109
43 3 2 11 1 109 118 119 110
44 3 2 11 1 110 119 120 111
45 3 2 11 1 111 120 121 112
46 3 2 11 1 112 121 122 113
47 3 2 11 1 113 122 123 114
48 3 2 11 1 114 123 124 115
49 3 2 11 1 115 124 125 116
50 3 2 11 1 116 125 31 32
51 3 2 11 1 13 14 126 117
52 3 2 11 1 117 126 127 118
53 3 2 11 1 118 127 128 119
54 3 2 11 1 119 128 129 120
55 3 2 11 1 120 129 130 121
56 3 2 11 1 121 130 131 122
57 3 2 11 1 122 131 132 123
58 3 2 11 1 123 132 133 124
59 3 2 11 1 124 133 134 125
60 3 2 11 1 125 134 30 31
61 3 2 11 1 14 15 135 126
62 3 2 11 1 126 135 136 127
63 3 2 11 1 127 136 137 128
64 3 2 11 1 128 137 138 129
65 3 2 11 1 129 138 139 130
66 3 2 11 1 130 139 140 131
67 3 2 11 1 131 140 141 132
68 3 2 11 1 132 141 142 133
69 3 2 11 1 133 142 143 134
70 3 2 11 1 134 143 29 30
71 3 2 11 1 15 16 144 135
72 3 2 11 1 135 144 145 136
73 3 2 11 1 136 145 146 137
74 3 2 11 1 137 146 147 138
75 3 2 11 1 138 147 148 139
76 3 2 11 1 139 148 149 140
77 3 2 11 1 140 149 150 141
78 3 2 11 1 141 150 151 142
79 3 2 11 1 142 151 152 143
80 3 2 11 1 143 152 28 29
81 3 2 11 1 16 17 153 144
82 3 2 11 1 144 153 154 145
83 3 2 11 1 145 154 155 146
84 3 2 11 1 146 155 156 147
85 3 2 11 1 147 156 157 148
86 3 2 11 1 148 157 158 149
87 3 2 11 1 149 158 159 150
88 3 2 11 1 150 159 160 151
89 3 2 11 1 151 160 161 152
90 3 2 11 1 152 161 27 28
91 3 2 11 1 17 4 18 153
92 3 2 11 1 153 18 19 154
93 3 2 11 1 154 19 20 155
94 3 2 11 1 155 20 21 156
95 3 2 11 1 156 21 22 157
96 3 2 11 1 157 22 23 158
97 3 2 11 1 158 23 24 159
98 3 2 11 1 159 24 25 160
99 3 2 11 1 160 25 26 161
100 3 2 11 1 161 26 3 27
101 3 2 13 13 1 9 45 5
102 3 2 13 13 9 10 46 45
103 3 2 13 13 10 11 47 46
104 3 2 13 13 11 12 48 47
105 3 2 13 13 12 13 49 48
106 3 2 13 13 13 14 50 49
107 3 2 13 13 14 15 51 50
108 3 2 13 13 15 16 52 51
109 3 2 13 13 16 17 53 52
110 3 2 13 13 17 4 6 53
111 3 2 13 17 4 18 54 6
112 3 2 13 17 18 19 55 54
113 3 2 13 17 19 20 56 55
114 3 2 13 17 20 21 57 56
115 3 2 13 17 21 22 58 57
116 3 2 13 17 22 23 59 58
117 3 2 13 17 23 24 60 59
118 3 2 13 17 24 25 61 60
119 3 2 13 17 25 26 62 61
120 3 2 13 17 26 3 7 62
121 3 2 13 21 3 27 63 7
122 3 2 13 21 27 28 64 63
123 3 2 13 21 28 29 65 64
124 3 2 13 21 29 30 66 65
125 3 2 13 21 30 31 67 66
126 3 2 13 21 31 32 68 67
127 3 2 13 21 32 33 69 68
128 3 2 13 21 33 34 70 69
129 3 2 13 21 34 35 71 70
130 3 2 13 21 35 2 8 71
131 3 2 13 25 2 36 72 8
132 3 2 13 25 36 37 73 72
133 3 2 13 25 37 38 74 73
134 3 2 13 25 38 39 75 74
135 3 2 13 25 39 40 76 75
136 3 2 13 25 40 41 77 76
137 3 2 13 25 41 42 78 77
138 3 2 13 25 42 43 79 78
139 3 2 13 25 43 44 80 79
140 3 2 13 25 44 1 5 80
141 3 2 11 26 5 45 162 80
142 3 2 11 26 80 162 163 79
143 3 2 11 26 79 163 164 78
144 3 2 11 26 78 164 165 77
145 3 2 11 26 77 165 166 76
146 3 2 11 26 76 166 167 75
147 3 2 11 26 75 167 168 74
148 3 2 11 26 74 168 169 73
149 3 2 11 26 73 169 170 72
150 3 2 11 26 72 170 71 8
151 3 2 11 26 45 46 171 162
152 3 2 11 26 162 171 172 163
153 3 2 11 26 163 172 173 164
154 3 2 11 26 164 173 174 165
155 3 2 11 26 165 174 175 166
156 3 2 11 26 166 175 176 167
157 3 2 11 26 167 176 177 168
158 3 2 11 26 168 177 178 169
159 3 2 11 26 169 178 179 170
160 3 2 11 26 170 179 70 71
161 3 2 11 26 46 47 180 171
162 3 2 11 26 171 180 181 172
163 3 2 11 26 172 181 182 173
164 3 2 11 26 173 182 183 174
165 3 2 11 26 174 183 184 175
166 3 2 11 26 175 184 185 176
167 3 2 11 26 176 185 186 177
168 3 2 11 26 177 186 187 178
169 3 2 11 26 178 187 188 179
170 3 2 11 26 179 188 69 70
171 3 2 11 26 47 48 189 180
172 3 2 11 26 180 189 190 181
173 3 2 11 26 181 190 191 182
174 3 2 11 26 182 191 192 183
175 3 2 11 26 183 192 193 184
176 3 2 11 26 184 193 194 185
177 3 2 11 26 185 194 195 186
178 3 2 11 26 186 195 196 187
179 3 2 11 26 187 196 197 188
180 3 2 11 26 188 197 68 69
181 3 2 11 26 48 49 198 189
182 3 2 11 26 189 198 199 190
183 3 2 11 26 190 199 200 191
184 3 2 11 26 191 200 201 192
185 3 2 11 26 192 201 202 193
186 3 2 11 26 193 202 203 194
187 3 2 11 26 194 203 204 195
188 3 2 11 26 195 204 205 196
189 3 2 11 26 196 205 206 197
190 3 2 11 26 197 206 67 68
191 3 2 11 26 49 50 207 198
192 3 2 11 26 198 207 208 199
193 3 2 11 26 199 208 209 200
194 3 2 11 26 200 209 210 201
195 3 2 11 26 201 210 211 202
196 3 2 11 26 202 211 212 203
197 3 2 11 26 203 212 213 204
198 3 2 11 26 204 213 214 205
199 3 2 11 26 205 214 215 206
200 3 2 11 26 206 215 66 67
201 3 2 11 26 50 51 216 207
202 3 2 11 26 207 216 217 208
203 3 2 11 26 208 217 218 209
204 3 2 11 26 209 218 219 210
205 3 2 11 26 210 219 220 211
206 3 2 11 26 211 220 221 212
207 3 2 11 26 212 221 222 213
208 3 2 11 26 213 222 223 214
209 3 2 11 26 214 223 224 215
210 3 2 11 26 215 224 65 66
211 3 2 11 26 51 52 225 216
212 3 2 11 26 216 225 226 217
213 3 2 11 26 217 226 227 218
214 3 2 11 26 218 227 228 219
215 3 2 11 26 219 228 229 220
216 3 2 11 26 220 229 230 221
217 3 2 11 26 221 230 231 222
218 3 2 11 26 222 231 232 223
219 3 2 11 26 223 232 233 224
220 3 2 11 26 224 233 64 65
221 3 2 11 26 52 53 234 225
222 3 2 11 26 225 234 235 226
223 3 2 11 26 226 235 236 227
224 3 2 11 26 227 236 237 228
225 3 2 11 26 228 237 238 229
226 3 2 11 26 229 238 239 230
227 3 2 11 26 230 239 240 231
228 3 2 11 26 231 240 241 232
229 3 2 11 26 232 241 242 233
230 3 2 11 26 233 242 63 64
231 3 2 11 26 53 6 54 234
232 3 2 11 26 234 54 55 235
233 3 2 11 26 235 55 56 236
234 3 2 11 26 236 56 57 237
235 3 2 11 26 237 57 58 238
236 3 2 11 26 238 58 59 239
237 3 2 11 26 239 59 60 240
238 3 2 11 26 240 60 61 241
239 3 2 11 26 241 61 62 242
240 3 2 11 26 242 62 7 63
241 5 2 10 1 1 9 81 44 5 45 162 80
242 5 2 10 1 44 81 82 43 80 162 163 79
243 5 2 10 1 43 82 83 42 79 163 164 78
244 5 2 10 1 42 83 84 41 78 164 165 77
245 5 2 10 1 41 84 85 40 77 165 166 76
246 5 2 10 1 40 85 86 39 76 166 167 75
247 5 2 10 1 39 86 87 38 75 167 168 74
248 5 2 10 1 38 87 88 37 74 168 169 73
249 5 2 10 1 37 88 89 36 73 169 170 72
250 5 2 10 1 36 89 35 2 72 170 71 8
251 5 2 10 1 9 10 90 81 45 46 171 162
252 5 2 10 1 81 90 91 82 162 171 172 163
253 5 2 10 1 82 91 92 83 163 172 173 164
254 5 2 10 1 83 92 93 84 164 173 174 165
255 5 2 10 1 84 93 94 85 165 174 175 166
256 5 2 10 1 85 94 95 86 166 175 176 167
257 5 2 10 1 86 95 96 87 167 176 177 168
258 5 2 10 1 87 96 97 88 168 177 178 169
259 5 2 10 1 88 97 98 89 169 178 179 170
260 5 2 10 1 89 98 34 35 170 179 70 71
261 5 2 10 1 10 11 99 90 46 47 180 171
262 5 2 10 1 90 99 100 91 171 180 181 172
263 5 2 10 1 91 100 101 92 172 181 182 173
264 5 2 10 1 92 101 102 93 173 182 183 174
265 5 2 10 1 93 102 103 94 174 183 184 175
266 5 2 10 1 94 103 104 95 175 184 185 176
267 5 2 10 1 95 104 105 96 176 185 186 177
268 5 2 10 1 96 105 106 97 177 186 187 178
269 5 2 10 1 97 106 107 98 178 187 188 179
270 5 2 10 1 98 107 33 34 179 188 69 70
271 5 2 10 1 11 12 108 99 47 48 189 180
272 5 2 10 1 99 108 109 100 180 189 190 181
273 5 2 10 1 100 109 110 101 181 190 191 182
274 5 2 10 1 101 110 111 102 182 191 192 183
275 5 2 10 1 102 111 112 103 183 192 193 184
276 5 2 10 1 103 112 113 104 184 193 194 185
277 5 2 10 1 104 113 114 105 185 194 195 186
278 5 2 10 1 105 114 115 106 186 195 196 187
279 5 2 10 1 106 115 116 107 187 196 197 188
280 5 2 10 1 107 116 32 33 188 197 68 69
281 5 2 10 1 12 13 117 108 48 49 198 189
282 5 2 10 1 108 117 118 109 189 198 199 190
283 5 2 10 1 109 118 119 110 190 199 200 191
284 5 2 10 1 110 119 120 111 191 200 201 192
285 5 2 10 1 111 120 121 112 192 201 202 193
286 5 2 10 1 112 121 122 113 193 202 203 194
287 5 2 10 1 113 122 123 114 194 203 204 195
288 5 2 10 1 114 123 124 115 195 204 205 196
289 5 2 10 1 115 124 125 116 196 205 206 197
290 5 2 10 1 116 125 31 32 197 206 67 68
291 5 2 10 1 13 14 126 117 49 50 207 198
292 5 2 10 1 117 126 127 118 198 207 208 199
293 5 2 10 1 118 127 128 119 199 208 209 200
294 5 2 10 1 119 128 129 120 200 209 210 201
295 5 2 10 1 120 129 130 121 201 210 211 202
296 5 2 10 1 121 130 131 122 202 211 212 203
297 5 2 10 1 122 131 132 123 203 212 213 204
298 5 2 10 1 123 132 133 124 204 213 214 205
299 5 2 10 1 124 133 134 125 205 214 215 206
300 5 2 10 1 125 134 30 31 206 215 66 67
301 5 2 10 1 14 15 135 126 50 51 216 207
302 5 2 10 1 126 135 136 127 207 216 217 208
303 5 2 10 1 127 136 137 128 208 217 218 209
304 5 2 10 1 128 137 138 129 209 218 219 210
305 5 2 10 1 129 138 139 130 210 219 220 211
306 5 2 10 1 130 139 140 131 211 220 221 212
307 5 2 10 1 131 140 141 132 212 221 222 213
308 5 2 10 1 132 141 142 133 213 222 223 214
309 5 2 10 1 133 142 143 134 214 223 224 215
310 5 2 10 1 134 143 29 30 215 224 65 66
311 5 2 10 1 15 16 144 135 51 52 225 216
312 5 2 10 1 135 144 145 136 216 225 226 217
313 5 2 10 1 136 145 146 137 217 226 227 218
314 5 2 10 1 137 146 147 138 218 227 228 219
315 5 2 10 1 138 147 148 139 219 228 229 220
316 5 2 10 1 139 148 149 140 220 229 230 221
317 5 2 10 1 140 149 150 141 221 230 231 222
318 5 2 10 1 141 150 151 142 222 231 232 223
319 5 2 10 1 142 151 152 143 223 232 233 224
320 5 2 10 1 143 152 28 29 224 233 64 65
321 5 2 10 1 16 17 153 144 52 53 234 225
322 5 2 10 1 144 153 154 145 225 234 235 226
323 5 2 10 1 145 154 155 146 226 235 236 227
324 5 2 10 1 146 155 156 147 227 236 237 228
325 5 2 10 1 147 156 157 148 228 237 238 229
326 5 2 10 1 148 157 158 149 229 238 239 230
327 5 2 10 1 149 158 159 150 230 239 240 231
328 5 2 10 1 150 159 160 151 231 240 241 232
329 5 2 10 1 151 160 161 152 232 241 242 233
330 5 2 10 1 152 161 27 28 233 242 63 64
331 5 2 10 1 17 4 18 153 53 6 54 234
332 5 2 10 1 153 18 19 154 234 54 55 235
333 5 2 10 1 154 19 20 155 235 55 56 236
334 5 2 10 1 155 20 21 156 236 56 57 237
335 5 2 10 1 156 21 22 157 237 57 58 238
336 5 2 10 1 157 22 23 158 238 58 59 239
337 5 2 10 1 158 23 24 159 239 59 60 240
338 5 2 10 1 159 24 25 160 240 60 61 241
339 5 2 10 1 160 25 26 161 241 61 62 242
340 5 2 10 1 161 26 3 27 242 62 7 63
$EndElements
